<svg xmlns="http://www.w3.org/2000/svg" width="512" height="512" viewBox="0 0 512 512" version="1.1"><path d="" stroke="none" fill="#f05c2c" fill-rule="evenodd"/><path d="M 85.230 50.015 C 60.665 56.451, 40.270 76.984, 33.968 101.623 C 32.071 109.043, 32 113.163, 32 216 C 32 318.837, 32.071 322.957, 33.968 330.377 C 40.321 355.215, 60.785 375.679, 85.623 382.032 C 91.826 383.618, 96.686 384, 110.660 384 L 128 384 128.004 418.750 C 128.007 451.661, 128.113 453.672, 129.995 456.759 C 132.935 461.581, 137.538 463.992, 143.816 463.996 C 146.739 463.998, 150.114 463.482, 151.316 462.850 C 152.517 462.217, 174.493 444.217, 200.150 422.850 L 246.801 384 332.740 384 C 414.948 384, 419.014 383.915, 426.377 382.032 C 451.215 375.679, 471.679 355.215, 478.032 330.377 C 479.929 322.957, 480 318.837, 480 216 C 480 113.163, 479.929 109.043, 478.032 101.623 C 471.679 76.785, 451.215 56.321, 426.377 49.968 C 418.871 48.049, 414.632 48.001, 255.590 48.055 C 98.520 48.108, 92.232 48.180, 85.230 50.015 M 154.920 185.076 C 145.123 186.594, 136.702 192.907, 132.047 202.222 C 129.445 207.429, 129 209.441, 129 216 C 129 222.559, 129.445 224.571, 132.047 229.778 C 135.594 236.877, 140.258 241.313, 147.806 244.769 C 152.516 246.925, 154.242 247.183, 161.352 246.796 C 173.348 246.142, 181.975 240.891, 187.529 230.864 C 190.239 225.972, 190.500 224.665, 190.500 216 C 190.500 207.353, 190.235 206.022, 187.554 201.181 C 181.003 189.355, 168.171 183.023, 154.920 185.076 M 250.920 185.076 C 241.123 186.594, 232.702 192.907, 228.047 202.222 C 225.445 207.429, 225 209.441, 225 216 C 225 222.559, 225.445 224.571, 228.047 229.778 C 231.594 236.877, 236.258 241.313, 243.806 244.769 C 248.516 246.925, 250.242 247.183, 257.352 246.796 C 269.348 246.142, 277.975 240.891, 283.529 230.864 C 286.239 225.972, 286.500 224.665, 286.500 216 C 286.500 207.353, 286.235 206.022, 283.554 201.181 C 277.003 189.355, 264.171 183.023, 250.920 185.076 M 346.920 185.076 C 337.123 186.594, 328.702 192.907, 324.047 202.222 C 321.445 207.429, 321 209.441, 321 216 C 321 222.559, 321.445 224.571, 324.047 229.778 C 327.594 236.877, 332.258 241.313, 339.806 244.769 C 344.516 246.925, 346.242 247.183, 353.352 246.796 C 365.348 246.142, 373.975 240.891, 379.529 230.864 C 382.239 225.972, 382.500 224.665, 382.500 216 C 382.500 207.353, 382.235 206.022, 379.554 201.181 C 373.003 189.355, 360.171 183.023, 346.920 185.076" stroke="none" fill="#ec5c2c" fill-rule="evenodd"/></svg>